HIERARCHY
ROOT Hips
{
  OFFSET 53.3366 91.6038 4.82772
  CHANNELS 6 Xposition Yposition Zposition Zrotation Xrotation Yrotation
  JOINT spine
  {
    OFFSET 0 6.84637 0.3937
    CHANNELS 3 Zrotation Xrotation Yrotation
    JOINT spine1
    {
      OFFSET 0 9.49621 0
      CHANNELS 3 Zrotation Xrotation Yrotation
      JOINT spine2
      {
        OFFSET 0 9.09909 0
        CHANNELS 3 Zrotation Xrotation Yrotation
        JOINT Neck
        {
          OFFSET 0 23.3612 1.11378
          CHANNELS 3 Zrotation Xrotation Yrotation
          JOINT Head
          {
            OFFSET 0 7.05802 0
            CHANNELS 3 Zrotation Xrotation Yrotation
            End Site
            {
              OFFSET 0 17.0844 -5.63419
            }
          }
        }
        JOINT RightShoulder
        {
          OFFSET -3.83136 9.82631 -0.533491
          CHANNELS 3 Zrotation Xrotation Yrotation
          JOINT RightArm
          {
            OFFSET 0 12.8881 0
            CHANNELS 3 Zrotation Xrotation Yrotation
            JOINT RightArmRoll
            {
              OFFSET 0 6.50617 0
              CHANNELS 3 Zrotation Xrotation Yrotation
              JOINT RightForeArm
              {
                OFFSET 0 18.9501 0
                CHANNELS 3 Zrotation Xrotation Yrotation
                JOINT RightForeArmRoll
                {
                  OFFSET 0 7.30093 0
                  CHANNELS 3 Zrotation Xrotation Yrotation
                  JOINT RightHand
                  {
                    OFFSET 0 14.6514 0
                    CHANNELS 3 Zrotation Xrotation Yrotation
                    End Site
                    {
                      OFFSET 0 0 0
                    }
                  }
                }
              }
            }
          }
        }
        JOINT LeftShoulder
        {
          OFFSET 3.83136 9.82631 -0.533491
          CHANNELS 3 Zrotation Xrotation Yrotation
          JOINT LeftArm
          {
            OFFSET 0 12.8881 0
            CHANNELS 3 Zrotation Xrotation Yrotation
            JOINT LeftArmRoll
            {
              OFFSET 0 6.50617 0
              CHANNELS 3 Zrotation Xrotation Yrotation
              JOINT LeftForeArm
              {
                OFFSET 0 18.9501 0
                CHANNELS 3 Zrotation Xrotation Yrotation
                JOINT LeftForeArmRoll
                {
                  OFFSET 0 7.30093 0
                  CHANNELS 3 Zrotation Xrotation Yrotation
                  JOINT LeftHand
                  {
                    OFFSET 0 14.6514 0
                    CHANNELS 3 Zrotation Xrotation Yrotation
                    End Site
                    {
                      OFFSET 0 0 0
                    }
                  }
                }
              }
            }
          }
        }
      }
    }
  }
  JOINT RightUpLeg
  {
    OFFSET -6.06837 -1.11278 -0.933477
    CHANNELS 3 Zrotation Xrotation Yrotation
    JOINT RightUpLegRoll
    {
      OFFSET 0 17.1796 0
      CHANNELS 3 Zrotation Xrotation Yrotation
      JOINT RightLeg
      {
        OFFSET 0 -21.2743 0
        CHANNELS 3 Zrotation Xrotation Yrotation
        JOINT RightLegRoll
        {
          OFFSET 0 21.3439 0
          CHANNELS 3 Zrotation Xrotation Yrotation
          JOINT RightFoot
          {
            OFFSET 0 17.7652 0
            CHANNELS 3 Zrotation Xrotation Yrotation
            JOINT RightToeBase
            {
              OFFSET 0 14.8508 0
              CHANNELS 3 Zrotation Xrotation Yrotation
              End Site
              {
                OFFSET 0.0062947 7.19214 -0.829005
              }
            }
          }
        }
      }
    }
  }
  JOINT LeftUpLeg
  {
    OFFSET 6.06837 -1.11278 -0.933477
    CHANNELS 3 Zrotation Xrotation Yrotation
    JOINT LeftUpLegRoll
    {
      OFFSET 0 17.1797 0
      CHANNELS 3 Zrotation Xrotation Yrotation
      JOINT LeftLeg
      {
        OFFSET 0 21.2742 0
        CHANNELS 3 Zrotation Xrotation Yrotation
        JOINT LeftLegRoll
        {
          OFFSET 0 21.5412 0
          CHANNELS 3 Zrotation Xrotation Yrotation
          JOINT LeftFoot
          {
            OFFSET 0 17.5679 0
            CHANNELS 3 Zrotation Xrotation Yrotation
            JOINT LeftToeBase
            {
              OFFSET 0 14.8508 0
              CHANNELS 3 Zrotation Xrotation Yrotation
              End Site
              {
                OFFSET -0.0282102 7.19213 -0.829005
              }
            }
          }
        }
      }
    }
  }
}
MOTION
Frames: 4
Frame Time: 0.00208333
56.0738 91.5842 6.74024 0.750692 -2.49962 -5.41362 0.00498746 -1.64013 -0.0893459 -0.0140281 0.722553 -0.173993 -0.0119504 2.36763 -0.173828 -6.81639 24.24 0.437162 5.39778 -9.84593 -1.29364 72.983 6.32604 1.27805 101.025 -0.418691 19.2967 -1.40191e-007 1.62837e-007 -4.87659e-006 8.05119 15.6784 -2.46931 2.14827e-006 -9.02842e-007 -2.99999 8.02916 -4.95147 0.697692 -68.7711 2.64865 -0.186899 -104.885 4.46792 -23.731 -1.26672e-005 2.6983e-008 3.17021e-006 -11.2638 5.53105 0.984856 2.58776e-005 -3.16577e-006 3.00695 -8.0289 -4.95146 -0.6977 173.665 -0.221752 2.54749 -180 7.01541e-015 178.899 177.371 4.31517 179.999 5.17106e-006 1.72918e-006 0.0419072 -18.6404 67.9025 19.4536 8.13649 25.2327 -3.48773 -176.071 -4.04936 0.53467 4.54188e-006 -4.6773e-006 -1.16858 -1.23007 -4.21057 0.0625115 -2.56043e-006 -2.56676e-006 -0.0454037 18.7239 67.9569 -19.4854 -8.13649 25.2327 3.48773 
56.049 91.5698 6.73017 0.754162 -2.49325 -5.42034 0.00141863 -1.64342 -0.0887009 -0.0195505 0.715993 -0.173507 -0.0174816 2.36107 -0.173249 -6.7977 24.3074 0.434115 5.38987 -9.90696 -1.29141 73.0433 6.36329 1.28417 100.94 -0.419623 19.3247 -1.40191e-007 1.62837e-007 -4.87659e-006 8.04301 15.6739 -2.46759 2.14827e-006 -9.02842e-007 -2.99999 8.02916 -4.95147 0.697692 -68.7872 2.65733 -0.188951 -104.852 4.48691 -23.7109 -1.26672e-005 2.6983e-008 3.17021e-006 -11.2795 5.53216 0.985036 2.58776e-005 -3.16577e-006 3.00695 -8.0289 -4.95146 -0.6977 173.662 -0.212164 2.54677 -180 7.01541e-015 178.899 177.374 4.31256 179.998 5.17106e-006 1.72918e-006 0.0419072 -18.6409 67.9031 19.4541 8.13649 25.2327 -3.48773 -176.078 -4.04215 0.540138 4.54188e-006 -4.6773e-006 -1.16858 -1.2283 -4.20904 0.0626732 -2.56043e-006 -2.56676e-006 -0.0454037 18.7247 67.958 -19.4863 -8.13649 25.2327 3.48773 
56.0544 91.5724 6.72604 0.757745 -2.48689 -5.42703 -0.00230995 -1.64676 -0.088084 -0.025335 0.70932 -0.173106 -0.0232739 2.3544 -0.172752 -6.7765 24.3768 0.430353 5.37996 -9.9696 -1.28929 73.1072 6.40188 1.29027 100.852 -0.420963 19.3529 -1.40191e-007 1.62837e-007 -4.87659e-006 8.03534 15.6692 -2.46588 2.14827e-006 -9.02842e-007 -2.99999 8.02916 -4.95147 0.697692 -68.8035 2.666 -0.190981 -104.819 4.50533 -23.6902 -1.26672e-005 2.6983e-008 3.17021e-006 -11.2961 5.53329 0.985232 2.58776e-005 -3.16577e-006 3.00695 -8.0289 -4.95146 -0.6977 173.658 -0.20262 2.54598 -180 7.01541e-015 178.899 177.376 4.30994 179.998 5.17106e-006 1.72918e-006 0.0419072 -18.6413 67.9037 19.4546 8.13649 25.2327 -3.48773 -176.085 -4.03498 0.545663 4.54188e-006 -4.6773e-006 -1.16858 -1.22665 -4.20736 0.0628293 -2.56043e-006 -2.56676e-006 -0.0454037 18.7257 67.9591 -19.4872 -8.13649 25.2327 3.48773 
56.0543 91.5787 6.72122 0.761408 -2.48052 -5.4337 -0.00615036 -1.65014 -0.0874868 -0.0313028 0.702567 -0.172766 -0.0292489 2.34765 -0.172311 -6.75352 24.4476 0.42609 5.36865 -10.0334 -1.28724 73.1736 6.44142 1.29635 100.762 -0.422589 19.3811 -1.40191e-007 1.62837e-007 -4.87659e-006 8.02801 15.6644 -2.46418 2.14827e-006 -9.02842e-007 -2.99999 8.02916 -4.95147 0.697692 -68.8198 2.67465 -0.192995 -104.784 4.52336 -23.6691 -1.26672e-005 2.6983e-008 3.17021e-006 -11.3133 5.53444 0.985438 2.58776e-005 -3.16577e-006 3.00695 -8.0289 -4.95146 -0.6977 173.655 -0.193107 2.54515 -180 7.01541e-015 178.899 177.379 4.30734 179.998 5.17106e-006 1.72918e-006 0.0419072 -18.6418 67.9042 19.4551 8.13649 25.2327 -3.48773 -176.092 -4.02785 0.551226 4.54188e-006 -4.6773e-006 -1.16858 -1.22508 -4.20558 0.0629815 -2.56043e-006 -2.56676e-006 -0.0454037 18.7266 67.9602 -19.4882 -8.13649 25.2327 3.48773 
